<svg width="49" height="40" viewBox="0 0 49 40" fill="none" xmlns="http://www.w3.org/2000/svg">
<path d="M36.8957 32.4862H13.4657C11.4433 32.4862 10.6467 31.707 10.3339 31.0533C9.9543 30.2607 10.1254 29.2636 10.779 28.4522C11.4861 27.5767 12.8321 27.3802 12.9845 27.3615C13.4576 27.3 13.8921 27.6355 13.9535 28.11C14.0137 28.5832 13.6809 29.0163 13.209 29.0778C12.8869 29.1219 12.3215 29.2983 12.1277 29.5389C11.9098 29.8089 11.8122 30.131 11.8964 30.3061C11.9954 30.5133 12.4659 30.7539 13.467 30.7539H36.897C37.3756 30.7539 37.7632 31.1415 37.7632 31.6187C37.7632 32.0959 37.3729 32.4862 36.8957 32.4862Z" fill="#333333"/>
<path d="M15.1964 39.9046C12.6742 39.9046 10.6211 37.8528 10.6211 35.3306C10.6211 32.8083 12.6728 30.7566 15.1964 30.7566C17.72 30.7566 19.7718 32.8083 19.7718 35.3306C19.7718 37.8528 17.7187 39.9046 15.1964 39.9046ZM15.1964 32.4862C13.6285 32.4862 12.3534 33.7614 12.3534 35.3306C12.3534 36.8998 13.6285 38.175 15.1964 38.175C16.7643 38.175 18.0395 36.8998 18.0395 35.3306C18.0395 33.7614 16.7643 32.4862 15.1964 32.4862ZM37.1428 39.9046C34.6205 39.9046 32.5675 37.8528 32.5675 35.3306C32.5675 32.8083 34.6192 30.7566 37.1428 30.7566C39.6664 30.7566 41.7181 32.8083 41.7181 35.3306C41.7181 37.8528 39.665 39.9046 37.1428 39.9046ZM37.1428 32.4862C35.5749 32.4862 34.2998 33.7614 34.2998 35.3306C34.2998 36.8998 35.5749 38.175 37.1428 38.175C38.7107 38.175 39.9858 36.8998 39.9858 35.3306C39.9858 33.7614 38.7107 32.4862 37.1428 32.4862Z" fill="#B83375"/>
<path d="M11.452 29.8625C11.2609 29.8625 11.0697 29.7997 10.9093 29.67C10.7308 29.526 10.6168 29.317 10.5922 29.0889C10.5677 28.8609 10.6346 28.6324 10.7783 28.4536C11.1834 27.9511 11.5977 27.7506 11.9546 27.7091L8.37372 6.40971C8.26728 6.26279 8.21018 6.08589 8.21065 5.90446C8.21065 5.82426 8.22135 5.74673 8.2414 5.67322C7.78159 3.55731 6.31396 1.82502 4.9332 1.82502H1.53411C1.0556 1.82502 0.667969 1.43739 0.667969 0.960207C0.667969 0.483025 1.0556 0.0953979 1.53411 0.0953979H4.93454C7.08787 0.0953979 9.16502 2.22066 9.8721 5.04098H47.5909C47.929 5.04098 48.2378 5.1947 48.4396 5.46336C48.6642 5.76277 48.727 6.16243 48.6107 6.56209L44.6048 20.3736C43.7427 23.3477 40.6577 25.9515 37.5807 26.303L18.1058 28.5218C15.2401 28.848 12.9878 29.2516 12.6336 29.396C12.4893 29.4642 12.3342 29.4895 12.1845 29.4735C12.1671 29.4922 12.1484 29.5149 12.1257 29.5417C12.0446 29.6422 11.9419 29.7232 11.8253 29.7787C11.7087 29.8342 11.5812 29.8629 11.452 29.8625ZM11.7421 29.2931L11.7434 29.2944C11.7434 29.2944 11.7434 29.2931 11.7421 29.2931ZM10.1889 6.76926L13.6588 27.4004C15.0249 27.1571 16.8133 26.9259 17.9093 26.8002L37.3843 24.5814C39.7368 24.3127 42.2831 22.1647 42.942 19.8911L46.7461 6.76926H10.1889Z" fill="#333333"/>
<path d="M26.7295 17.1831H21.8334C21.3455 17.1831 20.9512 16.7875 20.9512 16.3009C20.9512 15.8144 21.3468 15.4188 21.8334 15.4188H26.7295C26.9635 15.4188 27.1878 15.5117 27.3533 15.6771C27.5187 15.8426 27.6117 16.067 27.6117 16.3009C27.6117 16.5349 27.5187 16.7593 27.3533 16.9247C27.1878 17.0902 26.9635 17.1831 26.7295 17.1831Z" fill="#B83375"/>
<path d="M32.1826 17.1831H27.2865C26.7986 17.1831 26.4043 16.7875 26.4043 16.3009C26.4043 15.8144 26.7999 15.4188 27.2865 15.4188H32.1826C32.6705 15.4188 33.0648 15.8144 33.0648 16.3009C33.0648 16.7875 32.6692 17.1831 32.1826 17.1831Z" fill="#B83375"/>
</svg>
