<svg width="49" height="48" viewBox="0 0 49 48" fill="none" xmlns="http://www.w3.org/2000/svg">
<path d="M25.1841 24.1618C25.0577 24.1618 24.9327 24.1342 24.8165 24.0804C24.7123 24.0323 24.6186 23.964 24.5411 23.8795C24.4635 23.7949 24.4035 23.6958 24.3646 23.5878L17.7223 5.28574C17.6436 5.06894 17.6539 4.82975 17.7512 4.62057C17.8484 4.41139 18.0246 4.24928 18.2411 4.16975L29.0044 0.218713C29.2223 0.138792 29.4621 0.148963 29.6728 0.246322C29.8835 0.343681 30.0463 0.520962 30.1247 0.73893L36.7669 19.041C36.8457 19.2578 36.8354 19.497 36.7381 19.7062C36.6409 19.9153 36.4647 20.0774 36.2482 20.157L25.4849 24.108C25.3875 24.1443 25.2858 24.1618 25.1841 24.1618ZM19.6579 5.50662L25.7058 22.1695L34.8314 18.8187L28.7835 2.15718L19.6579 5.50662Z" fill="#B83375"/>
<path d="M28.5313 41.3627C28.3529 41.3626 28.1788 41.3078 28.0325 41.2057C27.8862 41.1036 27.7748 40.959 27.7132 40.7916L21.7511 24.5515C21.6711 24.335 21.6813 24.0952 21.7787 23.8845C21.8761 23.6748 22.0527 23.5122 22.2698 23.4326L38.8223 17.3557C39.0388 17.2757 39.2786 17.2859 39.4893 17.3833C39.6986 17.4806 39.8613 17.6564 39.9412 17.8744L45.9121 34.1377C45.992 34.3557 45.9818 34.5955 45.8845 34.8047C45.7871 35.014 45.6098 35.1767 45.3933 35.2566L28.8321 41.3103C28.7319 41.3452 28.6301 41.3627 28.5313 41.3627ZM23.6881 24.768L29.0501 39.3719L43.9736 33.9169L38.6029 19.2927L23.6881 24.768ZM21.4474 39.2222C21.0913 39.2222 20.7571 39.0028 20.6278 38.6497L7.913 3.86779L1.87384 6.37733C1.76812 6.42122 1.65479 6.44386 1.54032 6.44395C1.42586 6.44405 1.31249 6.42159 1.2067 6.37787C1.10092 6.33415 1.00477 6.27003 0.923768 6.18915C0.842763 6.10828 0.77848 6.01224 0.73459 5.90652C0.6907 5.8008 0.668062 5.68748 0.667969 5.57301C0.667876 5.45854 0.690331 5.34518 0.73405 5.23939C0.777769 5.1336 0.841896 5.03746 0.922771 4.95645C1.00365 4.87545 1.09968 4.81116 1.2054 4.76727L8.08447 1.90753C8.30389 1.81599 8.55092 1.81889 8.76889 1.9148C8.98686 2.01071 9.15542 2.19089 9.23825 2.41467L22.2669 38.0524C22.3464 38.2696 22.3364 38.5095 22.2391 38.7193C22.1419 38.9291 21.9653 39.0917 21.7482 39.1713C21.6479 39.2048 21.5462 39.2222 21.4474 39.2222Z" fill="#333333"/>
<path d="M27.1328 41.8741C26.9277 41.8743 26.7291 41.8023 26.5719 41.6706C26.4146 41.5389 26.3089 41.356 26.2731 41.154C26.2374 40.9521 26.274 40.744 26.3764 40.5663C26.4789 40.3887 26.6408 40.2528 26.8335 40.1827L47.4969 32.6293C47.9488 32.4637 48.4501 32.6962 48.6158 33.1496C48.6551 33.2572 48.6729 33.3715 48.6681 33.486C48.6633 33.6005 48.6359 33.7129 48.5876 33.8168C48.5393 33.9207 48.4709 34.0141 48.3865 34.0916C48.3021 34.1691 48.2032 34.2292 48.0956 34.2685L27.4322 41.8218C27.3334 41.8567 27.2317 41.8741 27.1328 41.8741Z" fill="#333333"/>
<path d="M22.9663 47.8348C20.7983 47.8348 18.7581 46.498 17.9719 44.3473C17.4851 43.0148 17.5462 41.5719 18.1434 40.2859C18.7406 38.9999 19.8043 38.0219 21.1368 37.5351C23.8861 36.5296 26.9435 37.9493 27.9491 40.7C28.9546 43.4508 27.5349 46.5067 24.7842 47.5122C24.2019 47.7257 23.5865 47.8349 22.9663 47.8348ZM22.9576 38.9563C22.5522 38.9563 22.1395 39.026 21.737 39.1728C20.8418 39.4997 20.1284 40.1565 19.7259 41.0197C19.3233 41.8828 19.2841 42.8521 19.6111 43.7472C20.2868 45.5941 22.3386 46.5488 24.1869 45.8731C26.0338 45.1974 26.9885 43.1456 26.3128 41.2972C25.7839 39.8543 24.4136 38.9563 22.9576 38.9563Z" fill="#333333"/>
</svg>
