<svg width="46" height="48" viewBox="0 0 46 48" fill="none" xmlns="http://www.w3.org/2000/svg">
<path d="M5.56924 48C4.9586 48 4.45898 47.5004 4.45898 46.8897V19.1334C4.45898 18.5227 4.9586 18.0231 5.56924 18.0231C6.17988 18.0231 6.67949 18.5227 6.67949 19.1334V46.8712C6.67949 47.5004 6.17988 48 5.56924 48ZM5.56924 11.5096C4.9586 11.5096 4.45898 11.01 4.45898 10.3994V1.11025C4.45898 0.499614 4.9586 0 5.56924 0C6.17988 0 6.67949 0.499614 6.67949 1.11025V10.3994C6.67949 11.0285 6.17988 11.5096 5.56924 11.5096ZM23.0187 48C22.4081 48 21.9085 47.5004 21.9085 46.8897V36.9345C21.9085 36.3238 22.4081 35.8242 23.0187 35.8242C23.6294 35.8242 24.129 36.3238 24.129 36.9345V46.8897C24.129 47.5004 23.6294 48 23.0187 48ZM23.0187 29.3107C22.4081 29.3107 21.9085 28.8111 21.9085 28.2005V1.11025C21.9085 0.499614 22.4081 0 23.0187 0C23.6294 0 24.129 0.499614 24.129 1.11025V28.182C24.129 28.8111 23.6294 29.3107 23.0187 29.3107ZM40.4312 48C39.8206 48 39.321 47.5004 39.321 46.8897V32.1419C39.321 31.5312 39.8206 31.0316 40.4312 31.0316C41.0419 31.0316 41.5415 31.5312 41.5415 32.1419V46.8897C41.5415 47.5004 41.0604 48 40.4312 48ZM40.4312 24.4996C39.8206 24.4996 39.321 24 39.321 23.3894V1.11025C39.321 0.499614 39.8206 0 40.4312 0C41.0419 0 41.5415 0.499614 41.5415 1.11025V23.3894C41.5415 24.0185 41.0604 24.4996 40.4312 24.4996Z" fill="#333333"/>
<path d="M5.56905 20.2436C2.55286 20.2436 0.0917969 17.7826 0.0917969 14.7664C0.0917969 11.7502 2.55286 9.28912 5.56905 9.28912C8.58524 9.28912 11.0463 11.7502 11.0463 14.7664C11.0463 17.7826 8.58524 20.2436 5.56905 20.2436ZM5.56905 11.5096C3.77414 11.5096 2.31231 12.9715 2.31231 14.7664C2.31231 16.5613 3.77414 18.0231 5.56905 18.0231C7.36396 18.0231 8.8258 16.5613 8.8258 14.7664C8.8258 12.9715 7.36396 11.5096 5.56905 11.5096ZM23.0186 38.0447C20.0024 38.0447 17.5413 35.5836 17.5413 32.5675C17.5413 29.5513 20.0024 27.0902 23.0186 27.0902C26.0347 27.0902 28.4958 29.5513 28.4958 32.5675C28.4958 35.5836 26.0347 38.0447 23.0186 38.0447ZM23.0186 29.3107C21.2236 29.3107 19.7618 30.7725 19.7618 32.5675C19.7618 34.3624 21.2236 35.8242 23.0186 35.8242C24.8135 35.8242 26.2753 34.3624 26.2753 32.5675C26.2753 30.7725 24.8135 29.3107 23.0186 29.3107ZM40.431 33.2336C37.4149 33.2336 34.9538 30.7725 34.9538 27.7564C34.9538 24.7402 37.4149 22.2791 40.431 22.2791C43.4472 22.2791 45.9083 24.7402 45.9083 27.7564C45.9083 30.791 43.4657 33.2336 40.431 33.2336ZM40.431 24.4996C38.6361 24.4996 37.1743 25.9614 37.1743 27.7564C37.1743 29.5513 38.6361 31.0131 40.431 31.0131C42.226 31.0131 43.6878 29.5513 43.6878 27.7564C43.6878 25.9614 42.226 24.4996 40.431 24.4996Z" fill="#B83375"/>
</svg>
