<svg width="48" height="36" viewBox="0 0 48 36" fill="none" xmlns="http://www.w3.org/2000/svg">
<path d="M44.1732 35.7025H3.9011C1.89629 35.7025 0.266602 34.0728 0.266602 32.068V4.1345C0.266602 2.12969 1.89629 0.5 3.9011 0.5H44.1732C46.178 0.5 47.8077 2.12969 47.8077 4.1345V32.068C47.8077 34.0713 46.1765 35.7025 44.1732 35.7025ZM3.9011 2.46123C2.97808 2.46123 2.22783 3.21148 2.22783 4.1345V32.068C2.22783 32.991 2.97808 33.7413 3.9011 33.7413H44.1732C45.0962 33.7413 45.8465 32.991 45.8465 32.068V4.1345C45.8465 3.21148 45.0962 2.46123 44.1732 2.46123H3.9011ZM5.91992 29.9262C5.65985 29.9268 5.41018 29.8241 5.22584 29.6406C5.0415 29.4572 4.93759 29.208 4.93697 28.9479C4.93635 28.6879 5.03907 28.4382 5.22254 28.2539C5.406 28.0695 5.65518 27.9656 5.91525 27.965L10.1973 27.9463H10.2019C10.462 27.9457 10.7117 28.0484 10.896 28.2319C11.0804 28.4153 11.1843 28.6645 11.1849 28.9246C11.1855 29.1847 11.0828 29.4343 10.8993 29.6187C10.7159 29.803 10.4667 29.9069 10.2066 29.9075L5.92459 29.9262H5.91992ZM17.9706 29.9153L13.8411 29.9091C13.2994 29.9091 12.862 29.4686 12.862 28.9269C12.862 28.7982 12.8874 28.6708 12.9367 28.5519C12.986 28.433 13.0583 28.325 13.1494 28.2341C13.2404 28.1431 13.3485 28.0711 13.4675 28.0219C13.5865 27.9728 13.714 27.9477 13.8427 27.9479H13.8442L17.9721 27.9541C18.5138 27.9541 18.9528 28.3946 18.9512 28.9363C18.9512 29.4764 18.5123 29.9153 17.9706 29.9153ZM22.8083 29.9029C22.5482 29.9035 22.2985 29.8008 22.1142 29.6173C21.9299 29.4338 21.826 29.1847 21.8253 28.9246C21.8247 28.6645 21.9274 28.4148 22.1109 28.2305C22.2944 28.0462 22.5435 27.9423 22.8036 27.9416L27.0856 27.923H27.0903C27.3504 27.9223 27.6 28.0251 27.7844 28.2085C27.9687 28.392 28.0726 28.6412 28.0732 28.9012C28.0739 29.1613 27.9711 29.411 27.7877 29.5953C27.6042 29.7797 27.355 29.8836 27.095 29.8842L22.813 29.9029H22.8083ZM34.8589 29.8904L30.7295 29.8842C30.1878 29.8842 29.7504 29.4437 29.7504 28.902C29.7504 28.7733 29.7758 28.6459 29.8251 28.527C29.8744 28.4081 29.9466 28.3001 30.0377 28.2092C30.1288 28.1182 30.2369 28.0461 30.3559 27.997C30.4748 27.9479 30.6023 27.9228 30.731 27.923H30.7326L34.8605 27.9292C35.4022 27.9292 35.8411 28.3697 35.8396 28.9114C35.8396 29.0401 35.8142 29.1675 35.7649 29.2864C35.7156 29.4053 35.6433 29.5133 35.5522 29.6042C35.4612 29.6951 35.3531 29.7672 35.2341 29.8163C35.1151 29.8654 34.9876 29.8906 34.8589 29.8904ZM26.9206 25.2504L22.7912 25.2442C22.2495 25.2442 21.8121 24.8037 21.8121 24.262C21.8121 24.1333 21.8375 24.0059 21.8868 23.887C21.9361 23.7681 22.0083 23.6601 22.0994 23.5691C22.1905 23.4782 22.2986 23.4061 22.4176 23.357C22.5365 23.3079 22.664 23.2827 22.7927 23.2829H22.7943L26.9222 23.2892C27.4639 23.2892 27.9028 23.7297 27.9012 24.2713C27.9012 24.4 27.8759 24.5275 27.8266 24.6464C27.7773 24.7653 27.705 24.8733 27.6139 24.9642C27.5229 25.0551 27.4147 25.1272 27.2958 25.1763C27.1768 25.2254 27.0493 25.2506 26.9206 25.2504ZM5.91992 25.2333C5.65985 25.2339 5.41018 25.1312 5.22584 24.9477C5.0415 24.7642 4.93759 24.5151 4.93697 24.255C4.93635 23.9949 5.03907 23.7452 5.22254 23.5609C5.406 23.3766 5.65518 23.2727 5.91525 23.272L10.1973 23.2534H10.2019C10.462 23.2527 10.7117 23.3555 10.896 23.5389C11.0804 23.7224 11.1843 23.9716 11.1849 24.2316C11.1855 24.4917 11.0828 24.7414 10.8993 24.9257C10.7159 25.1101 10.4667 25.214 10.2066 25.2146L5.92459 25.2333H5.91992ZM37.5673 6.66075C37.4879 6.66075 37.4054 6.65141 37.3245 6.62962C36.7999 6.49576 36.4824 5.96498 36.6163 5.44043L36.6178 5.4342C36.7517 4.90965 37.2871 4.59368 37.8117 4.72754C38.3362 4.8614 38.6522 5.39529 38.5183 5.9214C38.4063 6.36345 38.0062 6.66075 37.5673 6.66075ZM41.2252 6.64051C41.1458 6.64051 41.0633 6.63117 40.9823 6.60938C40.4578 6.47552 40.1403 5.94474 40.2741 5.42019L40.2757 5.41397C40.4095 4.88942 40.9434 4.57344 41.4695 4.7073C41.9941 4.84116 42.3101 5.37505 42.1762 5.90116C42.0641 6.34322 41.6641 6.64051 41.2252 6.64051ZM33.9873 6.63273C33.9079 6.63273 33.8254 6.62339 33.7445 6.6016C33.2199 6.46774 32.9024 5.93696 33.0362 5.41241L33.0378 5.40618C33.1717 4.88163 33.7056 4.56566 34.2317 4.69952C34.7562 4.83338 35.0722 5.36727 34.9383 5.89338C34.8263 6.33543 34.4262 6.63273 33.9873 6.63273ZM30.4851 6.62183C30.4057 6.62183 30.3232 6.6125 30.2423 6.5907C29.7177 6.45684 29.4002 5.92607 29.534 5.40152L29.5356 5.39529C29.6695 4.87074 30.2049 4.55476 30.7295 4.68862C31.254 4.82249 31.57 5.35638 31.4361 5.88248C31.3241 6.32454 30.924 6.62183 30.4851 6.62183Z" fill="#333333"/>
</svg>
