<svg width="33" height="48" viewBox="0 0 33 48" fill="none" xmlns="http://www.w3.org/2000/svg">
<path d="M31.7035 48H0.966364C0.45298 48 0.0371094 47.5841 0.0371094 47.0722V0.929254C0.0371094 0.41587 0.45298 0 0.966364 0H23.1939C23.4405 0 23.6757 0.0975146 23.8507 0.272467L32.3602 8.78203C32.5344 8.95625 32.6324 9.19245 32.6327 9.43882V47.0707C32.6327 47.5841 32.2168 48 31.7035 48ZM1.89418 46.1429H30.7756V9.82457L22.8096 1.85851H1.89418V46.1429Z" fill="#333333"/>
<path d="M30.1851 10.0626H23.2515C22.7381 10.0626 22.3223 9.64677 22.3223 9.13339V1.19171C22.3223 0.678321 22.7381 0.262451 23.2515 0.262451C23.7649 0.262451 24.1808 0.678321 24.1808 1.19171V8.20557H30.1865C30.6999 8.20557 31.1158 8.62144 31.1158 9.13482C31.1158 9.64821 30.697 10.0626 30.1851 10.0626Z" fill="#333333"/>
<path d="M26.4655 42.3713H6.44641C6.2068 42.3713 5.97701 42.2762 5.80758 42.1067C5.63815 41.9373 5.54297 41.7075 5.54297 41.4679V23.4966C5.54297 23.257 5.63815 23.0272 5.80758 22.8578C5.97701 22.6883 6.2068 22.5931 6.44641 22.5931H26.4655C26.7051 22.5931 26.9349 22.6883 27.1044 22.8578C27.2738 23.0272 27.369 23.257 27.369 23.4966V41.4665C27.369 41.9669 26.9646 42.3713 26.4655 42.3713ZM7.35129 40.5645H25.5635V24.4H7.35129V40.5645Z" fill="#B83375"/>
<path d="M26.2128 33.3859H6.95227C6.45323 33.3859 6.04883 32.9815 6.04883 32.4824C6.04883 31.9834 6.45323 31.579 6.95227 31.579H26.2128C26.7118 31.579 27.1162 31.9834 27.1162 32.4824C27.1162 32.9815 26.7118 33.3859 26.2128 33.3859Z" fill="#B83375"/>
<path d="M16.5187 42.3713C16.2791 42.3713 16.0493 42.2762 15.8798 42.1067C15.7104 41.9373 15.6152 41.7075 15.6152 41.4679V23.4966C15.6152 22.9975 16.0196 22.5931 16.5187 22.5931C17.0177 22.5931 17.4221 22.9975 17.4221 23.4966V41.4665C17.4221 41.9669 17.0177 42.3713 16.5187 42.3713Z" fill="#B83375"/>
</svg>
