<svg width="49" height="48" viewBox="0 0 49 48" fill="none" xmlns="http://www.w3.org/2000/svg">
<path d="M24.334 48C11.1002 48 0.333984 37.2338 0.333984 24C0.333984 10.7662 11.1002 0 24.334 0C37.5678 0 48.334 10.7662 48.334 24C48.334 37.2338 37.5678 48 24.334 48ZM24.334 1.73369C12.0566 1.73369 2.06767 11.7226 2.06767 24C2.06767 36.2774 12.0566 46.2663 24.334 46.2663C36.6114 46.2663 46.6003 36.2774 46.6003 24C46.6003 11.7226 36.6114 1.73369 24.334 1.73369Z" fill="#333333"/>
<path d="M24.3339 42.2166C14.2886 42.2166 6.11719 34.0452 6.11719 23.9999C6.11719 13.9546 14.2886 5.7832 24.3339 5.7832C34.3792 5.7832 42.5506 13.9546 42.5506 23.9999C42.5506 34.0452 34.3792 42.2166 24.3339 42.2166ZM24.3339 7.51689C15.245 7.51689 7.85087 14.9111 7.85087 23.9999C7.85087 33.0888 15.245 40.4829 24.3339 40.4829C33.4227 40.4829 40.8169 33.0888 40.8169 23.9999C40.8169 14.9111 33.4227 7.51689 24.3339 7.51689Z" fill="#B83375"/>
<path d="M24.641 31.3494C22.5923 31.3494 20.5986 30.3944 19.2911 28.7445C19.1483 28.5643 19.0829 28.3349 19.1092 28.1066C19.1355 27.8782 19.2513 27.6696 19.4312 27.5266C19.6114 27.3838 19.8408 27.3184 20.0692 27.3447C20.2975 27.371 20.5061 27.4868 20.6491 27.6667C21.7399 29.0436 23.5458 29.7934 25.2463 29.5767C25.9716 29.4842 26.5957 29.2372 27.0522 28.8586C27.5275 28.4657 27.8194 27.9152 27.8324 27.3879C27.87 25.8478 26.7286 25.3624 24.2971 24.6906C23.2063 24.3886 22.078 24.0766 21.2169 23.49C20.1146 22.7387 19.6292 21.6595 19.7765 20.2827C19.9383 18.7657 21.0999 17.4048 22.6674 16.8962C25.1047 16.1059 27.9769 17.2791 29.3479 19.6239C29.5892 20.0371 29.4505 20.5687 29.0373 20.81C28.6241 21.0513 28.0924 20.9126 27.8512 20.4994C26.8976 18.8683 24.8562 18.0087 23.202 18.5461C22.2889 18.8423 21.5897 19.6311 21.5001 20.4662C21.3455 21.9253 22.3222 22.3458 24.758 23.019C26.9323 23.62 29.6398 24.3684 29.5646 27.4298C29.5401 28.4527 29.0127 29.4871 28.156 30.195C27.4466 30.7816 26.5148 31.163 25.4645 31.2959C25.19 31.332 24.914 31.3494 24.641 31.3494Z" fill="#B83375"/>
<path d="M24.3336 34.5061C23.8554 34.5061 23.4668 34.1174 23.4668 33.6392V30.4723C23.4668 29.9941 23.8554 29.6055 24.3336 29.6055C24.8118 29.6055 25.2005 29.9941 25.2005 30.4723V33.6378C25.2005 34.1174 24.8118 34.5061 24.3336 34.5061ZM24.3336 18.3871C23.8554 18.3871 23.4668 17.9985 23.4668 17.5203V14.3606C23.4668 13.8824 23.8554 13.4938 24.3336 13.4938C24.8118 13.4938 25.2005 13.8824 25.2005 14.3606V17.5203C25.2005 17.9985 24.8118 18.3871 24.3336 18.3871Z" fill="#B83375"/>
</svg>
