<svg width="48" height="48" viewBox="0 0 48 48" fill="none" xmlns="http://www.w3.org/2000/svg">
<path d="M24 37.4456C23.904 37.4456 23.8091 37.4266 23.7187 37.3875L3.50622 28.7297C3.24389 28.6169 3.07422 28.3591 3.07422 28.0744C3.07422 27.7897 3.24389 27.5308 3.50622 27.4191L5.55124 26.5429C5.91292 26.3877 6.33264 26.5551 6.4878 26.9179C6.64296 27.2796 6.47552 27.6993 6.11273 27.8545L5.59813 28.0755L24 35.9564L42.4018 28.0744L41.9352 27.8746C41.7613 27.8001 41.6241 27.6596 41.5538 27.484C41.4835 27.3083 41.4858 27.112 41.5602 26.938C41.6347 26.7641 41.7752 26.6269 41.9508 26.5566C42.1264 26.4862 42.3228 26.4885 42.4967 26.563L44.4938 27.418C44.7561 27.5308 44.9258 27.7886 44.9258 28.0733C44.9258 28.3579 44.7561 28.6169 44.4938 28.7285L24.2813 37.3864C24.1909 37.4266 24.096 37.4456 24 37.4456Z" fill="#333333"/>
<path d="M24 33.3712C23.904 33.3712 23.8091 33.3522 23.7187 33.3132L3.50622 24.6553C3.24389 24.5426 3.07422 24.2847 3.07422 24.0001C3.07422 23.7154 3.24389 23.4564 3.50622 23.3448L5.55124 22.4685C5.91292 22.3134 6.33264 22.4808 6.4878 22.8436C6.64296 23.2053 6.47552 23.625 6.11273 23.7802L5.59813 24.0001L24 31.8821L42.4018 24.0001L41.9352 23.8002C41.7613 23.7258 41.6241 23.5853 41.5538 23.4096C41.4835 23.234 41.4858 23.0376 41.5602 22.8637C41.6347 22.6898 41.7752 22.5526 41.9508 22.4822C42.1264 22.4119 42.3228 22.4142 42.4967 22.4886L44.4938 23.3437C44.7561 23.4564 44.9258 23.7143 44.9258 23.9989C44.9258 24.2836 44.7561 24.5426 44.4938 24.6542L24.2813 33.3121C24.1909 33.3522 24.096 33.3712 24 33.3712Z" fill="#B83375"/>
<path d="M24 29.2967C23.904 29.2967 23.8091 29.2778 23.7187 29.2387L3.50622 20.5808C3.24389 20.4681 3.07422 20.2102 3.07422 19.9256C3.07422 19.6409 3.24389 19.3819 3.50622 19.2703L23.7187 10.6125C23.8074 10.5743 23.9029 10.5547 23.9994 10.5547C24.096 10.5547 24.1915 10.5743 24.2802 10.6125L44.4926 19.2703C44.755 19.3831 44.9246 19.6409 44.9246 19.9256C44.9246 20.2102 44.755 20.4692 44.4926 20.5808L24.2802 29.2387C24.1909 29.2778 24.096 29.2967 24 29.2967ZM5.59813 19.9256L24 27.8076L42.4018 19.9256L24 12.0435L5.59813 19.9256Z" fill="#333333"/>
</svg>
