<svg width="48" height="48" viewBox="0 0 48 48" fill="none" xmlns="http://www.w3.org/2000/svg">
<path d="M46.9131 48H1.08698C0.518577 48 0.0566406 47.5381 0.0566406 46.9697V40.0956C0.0566406 39.5272 0.518577 39.0652 1.08698 39.0652H46.9148C47.4832 39.0652 47.9452 39.5272 47.9452 40.0956V46.9697C47.9434 47.5381 47.4832 48 46.9131 48ZM2.11732 45.9393H45.8845V41.1259H2.11732V45.9393Z" fill="#333333"/>
<path d="M44.843 7.72411L37.4245 0.305658C37.4211 0.302224 37.4159 0.298789 37.4125 0.293638L37.3507 0.236969C37.3421 0.2301 37.3335 0.224948 37.3249 0.218079C37.306 0.204341 37.2888 0.188886 37.2682 0.176866C37.2614 0.171714 37.2545 0.168279 37.2459 0.163128C37.2253 0.14939 37.203 0.135651 37.1806 0.123631C37.1755 0.120196 37.1703 0.11848 37.1652 0.116763C37.1394 0.104742 37.1154 0.0910031 37.0896 0.0806997C37.0862 0.0789824 37.0828 0.078983 37.0793 0.0772658C37.0519 0.0652451 37.0227 0.0549417 36.9952 0.0463555C36.9918 0.0446383 36.9883 0.0446389 36.9849 0.0429216C36.9557 0.0343354 36.9265 0.0274657 36.8973 0.0205967C36.8887 0.0188795 36.8819 0.0188801 36.8733 0.0171628C36.8475 0.0120111 36.8235 0.00857672 36.7977 0.00514225C36.7292 -0.00171408 36.6602 -0.00171408 36.5916 0.00514225C36.5659 0.00685949 36.5401 0.0120111 36.5161 0.0171628C36.5075 0.0188801 36.5006 0.0188795 36.492 0.0205967C36.4628 0.0257484 36.4337 0.0343354 36.4045 0.0429216C36.401 0.0446389 36.3976 0.0446383 36.3942 0.0463555C36.365 0.0549417 36.3375 0.0652451 36.31 0.0772658C36.3066 0.078983 36.3031 0.0789824 36.2997 0.0806997C36.2739 0.0910031 36.2482 0.103025 36.2241 0.116763C36.219 0.11848 36.2138 0.121913 36.2087 0.123631C36.1864 0.135651 36.164 0.14939 36.1434 0.163128C36.1366 0.168279 36.1297 0.171714 36.1211 0.176866L36.0644 0.218079C36.0559 0.224948 36.0473 0.2301 36.0387 0.236969C36.0164 0.254141 35.9975 0.273031 35.9769 0.293638C35.9734 0.297072 35.9683 0.300507 35.9649 0.305658L28.5464 7.72411C28.1446 8.12594 28.1446 8.77849 28.5464 9.18204C28.9482 9.58388 29.6008 9.58388 30.0043 9.18204L35.6643 3.52204V33.0465C35.6643 33.6149 36.1263 34.0768 36.6947 34.0768C37.2631 34.0768 37.725 33.6149 37.725 33.0465V3.52204L43.385 9.18204C43.4806 9.27777 43.5941 9.35371 43.719 9.40553C43.8439 9.45734 43.9779 9.48401 44.1131 9.48401C44.2484 9.48401 44.3823 9.45734 44.5072 9.40553C44.6322 9.35371 44.7457 9.27777 44.8412 9.18204C44.9375 9.08665 45.0139 8.97317 45.0661 8.84812C45.1183 8.72308 45.1453 8.58894 45.1454 8.45343C45.1456 8.31793 45.1189 8.18373 45.067 8.05856C45.0151 7.93339 44.939 7.81973 44.843 7.72411ZM12.0335 0.305658L12.0232 0.295354C12.0032 0.275101 11.982 0.256173 11.9596 0.238686C11.9528 0.233535 11.9459 0.228382 11.9373 0.22323C11.9184 0.207775 11.8978 0.19232 11.8772 0.178582C11.8703 0.175601 11.8639 0.171543 11.8583 0.166561C11.836 0.152824 11.8137 0.139086 11.7913 0.127066C11.7864 0.125475 11.7818 0.12316 11.7776 0.120197C11.7518 0.106459 11.7261 0.0944383 11.7003 0.0841349C11.6969 0.0824177 11.6952 0.0824169 11.6917 0.0806997C11.6643 0.068679 11.6351 0.0583756 11.6059 0.0497894C11.6024 0.0480722 11.599 0.0480731 11.5973 0.0480731C11.5681 0.0394869 11.5389 0.0326172 11.5097 0.0257482C11.5011 0.024031 11.4943 0.0240316 11.4857 0.0223143C11.4599 0.0171626 11.4359 0.0137282 11.4101 0.0102937C11.3416 0.00343741 11.2726 0.00343741 11.204 0.0102937C11.1783 0.012011 11.1525 0.0171626 11.1285 0.0223143C11.1199 0.0240316 11.113 0.024031 11.1044 0.0257482C11.0752 0.0308999 11.0461 0.0394869 11.0169 0.0480731C11.0134 0.0497903 11.01 0.0497898 11.0066 0.051507C10.9774 0.0600932 10.9499 0.0703966 10.9224 0.0824173C10.919 0.0841345 10.9155 0.0841352 10.9121 0.0858525C10.8864 0.0961559 10.8606 0.108176 10.8366 0.121914C10.8314 0.123631 10.8263 0.127066 10.8211 0.128783C10.7988 0.140804 10.7764 0.154541 10.7558 0.168279C10.749 0.173431 10.7421 0.176866 10.7335 0.182017L10.6769 0.22323C10.6683 0.230099 10.6597 0.235251 10.6511 0.24212C10.6288 0.259293 10.6099 0.278182 10.5893 0.298789C10.5858 0.302224 10.5807 0.305658 10.5773 0.31081L3.1588 7.72926C2.75696 8.1311 2.75696 8.78364 3.1588 9.18719C3.25435 9.28292 3.36785 9.35886 3.49278 9.41068C3.61772 9.46249 3.75165 9.48916 3.88691 9.48916C4.02216 9.48916 4.15609 9.46249 4.28103 9.41068C4.40596 9.35886 4.51946 9.28292 4.61501 9.18719L10.275 3.52719V33.0516C10.275 33.62 10.737 34.0819 11.3054 34.0819C11.8738 34.0819 12.3357 33.62 12.3357 33.0516V3.52204L17.9957 9.18204C18.3975 9.58388 19.0501 9.58388 19.4536 9.18204C19.8555 8.78021 19.8555 8.12766 19.4536 7.72411L12.0335 0.305658Z" fill="#B83375"/>
</svg>
