<svg width="49" height="48" viewBox="0 0 49 48" fill="none" xmlns="http://www.w3.org/2000/svg">
<path d="M33.9097 14.0927C33.7975 14.0927 33.6865 14.0707 33.5828 14.0277C33.4792 13.9848 33.3851 13.9219 33.3058 13.8426C33.2265 13.7633 33.1636 13.6692 33.1206 13.5655C33.0777 13.4619 33.0556 13.3509 33.0556 13.2387V2.99722C33.0556 2.4116 32.5798 1.93579 31.9942 1.93579C31.4086 1.93579 30.9328 2.4116 30.9328 2.99722V13.2401C30.9328 13.7118 30.5505 14.0941 30.0788 14.0941C29.607 14.0941 29.2247 13.7118 29.2247 13.2401V2.99722C29.2247 1.46946 30.4678 0.22774 31.9942 0.22774C33.522 0.22774 34.7637 1.47082 34.7637 2.99722V13.2401C34.7637 13.7105 34.3814 14.0927 33.9097 14.0927ZM19.1947 13.865C18.9682 13.865 18.751 13.775 18.5908 13.6149C18.4306 13.4547 18.3407 13.2375 18.3407 13.011V2.76948C18.3407 2.18386 17.8649 1.70805 17.2792 1.70805C16.6936 1.70805 16.2178 2.18386 16.2178 2.76948V13.0123C16.2178 13.4841 15.8355 13.8664 15.3638 13.8664C14.892 13.8664 14.5098 13.4841 14.5098 13.0123V2.76948C14.5098 1.24172 15.7528 0 17.2792 0C18.807 0 20.0487 1.24308 20.0487 2.76948V13.0123C20.0487 13.4827 19.6664 13.865 19.1947 13.865Z" fill="#B83375"/>
<path d="M24.5999 48H24.5959C24.1241 47.9973 23.7432 47.6136 23.7459 47.1419L23.7771 40.1253H23.2945C21.6773 40.1253 20.361 38.8091 20.361 37.1918V37.1769L19.8649 37.1756C14.5442 37.1756 10.2144 32.8458 10.2144 27.5224V18.4508L9.34816 18.4494C7.7323 18.4494 6.41602 17.1331 6.41602 15.5159C6.41602 13.8987 7.7323 12.5824 9.34952 12.5824L39.9873 12.6285C41.6032 12.6285 42.9194 13.9448 42.9194 15.562C42.9194 17.1792 41.6032 18.4955 39.9859 18.4955H39.9846L39.056 18.4941V27.5441C39.056 32.8661 34.7262 37.1973 29.4028 37.1973L28.9094 37.1959C28.9067 38.8118 27.5917 40.1253 25.9759 40.1253H25.4851L25.454 47.15C25.4526 47.6191 25.0703 48 24.5999 48ZM22.0691 37.181V37.1918C22.0691 37.8669 22.6181 38.4173 23.2945 38.4173H25.9759C26.651 38.4173 27.2013 37.8683 27.2013 37.1918L22.0691 37.181ZM11.9224 18.4535V27.5224C11.9224 31.9037 15.4863 35.4675 19.8676 35.4675L29.4055 35.4892C33.7841 35.4892 37.3479 31.9254 37.3479 27.5441V18.4928L11.9224 18.4535ZM9.34816 14.2918C8.67443 14.2918 8.12406 14.8408 8.12406 15.5173C8.12406 16.1923 8.67308 16.7427 9.34952 16.7427L39.9873 16.7888C40.6624 16.7888 41.2114 16.2384 41.2114 15.5633C41.2114 14.8883 40.6624 14.3379 39.9859 14.3379L9.34816 14.2918Z" fill="#333333"/>
</svg>
