<svg width="49" height="48" viewBox="0 0 49 48" fill="none" xmlns="http://www.w3.org/2000/svg">
<path d="M33.5992 29.6523H21.8335C21.7304 29.6523 21.6273 29.6337 21.5314 29.5979L15.9965 27.5186C15.8328 27.457 15.6918 27.3469 15.5923 27.2031C15.4928 27.0593 15.4395 26.8886 15.4395 26.7137V13.6764C15.4395 13.2024 15.8247 12.8172 16.2987 12.8172H19.2029C21.7161 11.6128 23.0966 9.57931 23.0966 7.07179V1.21329C23.0966 0.739285 23.4818 0.354065 23.9558 0.354065C27.0362 0.354065 29.5422 2.85871 29.5422 5.93761V11.2247H34.7979C37.291 11.2247 39.3446 13.1723 39.4735 15.6583C39.4764 15.7185 39.4735 15.7801 39.4635 15.8388L37.7378 26.5934C37.7293 26.6436 37.7178 26.6923 37.7006 26.7409C37.092 28.4823 35.4437 29.6523 33.5992 29.6523ZM21.9882 27.9338H33.5978C34.6905 27.9338 35.6671 27.2565 36.0538 26.2426L37.7507 15.6641C37.6276 14.1318 36.3459 12.9446 34.7964 12.9446H28.6816C28.2076 12.9446 27.8224 12.5594 27.8224 12.0854V5.93904C27.8224 4.10316 26.5349 2.56085 24.8136 2.1699V7.07179C24.8136 10.2996 22.9677 12.9919 19.7485 14.4583C19.6368 14.5098 19.5151 14.5356 19.3919 14.5356H17.1565V26.118L21.9882 27.9338Z" fill="#333333"/>
<path d="M16.2977 27.5731H10.6483C10.1743 27.5731 9.78906 27.1878 9.78906 26.7138V13.6765C9.78906 13.2025 10.1743 12.8173 10.6483 12.8173H16.2977C16.7717 12.8173 17.1569 13.2025 17.1569 13.6765V26.7138C17.1569 27.1893 16.7717 27.5731 16.2977 27.5731ZM11.5061 25.8546H15.4371V14.5357H11.5061V25.8546Z" fill="#333333"/>
<path d="M11.3262 47.6459C11.1944 47.6459 11.0613 47.6159 10.9381 47.5529L7.45537 45.7914L3.97263 47.5529C3.83018 47.6251 3.67038 47.6562 3.51124 47.6425C3.35209 47.6289 3.19992 47.571 3.07187 47.4755C2.94379 47.3801 2.84476 47.251 2.78584 47.1025C2.72692 46.9541 2.71043 46.7922 2.73821 46.6349L3.39552 42.946L0.604458 40.3268C0.48646 40.2156 0.402257 40.0735 0.361552 39.9166C0.320847 39.7597 0.325297 39.5945 0.374389 39.4401C0.423481 39.2856 0.515218 39.1481 0.639027 39.0436C0.762835 38.939 0.913677 38.8715 1.07417 38.8489L4.95931 38.3061L6.69065 34.9294C6.83816 34.643 7.13316 34.4625 7.45537 34.4625C7.77758 34.4625 8.07258 34.643 8.22008 34.9294L9.95142 38.3061L13.8366 38.8489C13.9971 38.8715 14.1479 38.939 14.2717 39.0436C14.3955 39.1481 14.4873 39.2856 14.5363 39.4401C14.5854 39.5945 14.5899 39.7597 14.5492 39.9166C14.5085 40.0735 14.4243 40.2156 14.3063 40.3268L11.5152 42.946L12.1725 46.6349C12.2298 46.9557 12.1009 47.2808 11.8389 47.4755C11.6908 47.5861 11.511 47.6458 11.3262 47.6459ZM7.45537 43.9684C7.58855 43.9684 7.72173 44 7.84345 44.0615L10.1777 45.243L9.74091 42.7899C9.68936 42.5035 9.78674 42.2113 9.99868 42.0123L11.8202 40.3038L9.2712 39.9473C9.13459 39.928 9.0046 39.8762 8.8922 39.7962C8.7798 39.7162 8.68828 39.6104 8.62535 39.4876L7.45537 37.2049L6.28539 39.4876C6.22239 39.6103 6.13085 39.7161 6.01846 39.7961C5.90607 39.8761 5.77612 39.9279 5.63953 39.9473L3.09049 40.3038L4.91205 42.0123C5.01646 42.1101 5.09474 42.2325 5.13976 42.3683C5.18478 42.5041 5.19512 42.649 5.16982 42.7899L4.73305 45.243L7.06728 44.0615C7.18901 44 7.32219 43.9684 7.45537 43.9684ZM28.1785 47.6459C28.041 47.6459 27.905 47.613 27.779 47.5471L24.4538 45.7986L21.1285 47.5471C20.9866 47.6218 20.8266 47.6552 20.6666 47.6436C20.5066 47.632 20.3531 47.5757 20.2235 47.4813C20.0938 47.3869 19.993 47.2583 19.9325 47.1097C19.8721 46.9612 19.8543 46.7987 19.8812 46.6406L20.5171 42.9374L17.8262 40.3153C17.7114 40.2034 17.6302 40.0616 17.5917 39.906C17.5533 39.7504 17.5591 39.5871 17.6086 39.4346C17.658 39.2822 17.7491 39.1466 17.8716 39.0434C17.9941 38.9401 18.1431 38.8732 18.3017 38.8503L22.0193 38.3104L23.6819 34.9408C23.7529 34.7971 23.8626 34.6762 23.9988 34.5917C24.135 34.5071 24.2921 34.4624 24.4523 34.4625C24.7788 34.4625 25.0781 34.6487 25.2228 34.9408L26.8854 38.3104L30.603 38.8503C30.7615 38.8733 30.9105 38.9402 31.033 39.0434C31.1555 39.1467 31.2466 39.2822 31.2961 39.4346C31.3459 39.587 31.3519 39.7504 31.3134 39.9061C31.275 40.0618 31.1935 40.2036 31.0784 40.3153L28.3876 42.9374L29.022 46.6406C29.0778 46.9629 28.9447 47.2894 28.6797 47.4813C28.5348 47.5887 28.359 47.6465 28.1785 47.6459ZM24.4538 43.9684C24.5912 43.9684 24.7287 44.0014 24.8533 44.0673L27.0372 45.2158L26.6204 42.7841C26.5732 42.5049 26.6648 42.2213 26.8682 42.0237L28.6353 40.301L26.1937 39.9458C26.0558 39.9258 25.9249 39.8725 25.8122 39.7907C25.6994 39.7089 25.6082 39.6009 25.5464 39.4761L24.4538 37.2636L23.3611 39.4761C23.2365 39.7296 22.9945 39.9057 22.7138 39.9458L20.2722 40.301L22.0393 42.0237C22.139 42.121 22.2136 42.241 22.2567 42.3735C22.2998 42.5059 22.3103 42.6468 22.2871 42.7841L21.8703 45.2158L24.0542 44.0673C24.1788 44.0014 24.3163 43.9684 24.4538 43.9684ZM37.726 47.6459C37.6008 47.6458 37.4771 47.6184 37.3635 47.5656C37.25 47.5128 37.1494 47.4358 37.0687 47.3401C36.988 47.2444 36.9291 47.1322 36.8962 47.0114C36.8633 46.8906 36.8571 46.7641 36.8782 46.6406L37.5126 42.9374L34.8218 40.3153C34.707 40.2034 34.6257 40.0616 34.5872 39.906C34.5488 39.7504 34.5546 39.5871 34.6041 39.4346C34.6535 39.2822 34.7446 39.1466 34.8671 39.0434C34.9896 38.9401 35.1386 38.8732 35.2972 38.8503L39.0148 38.3104L40.6774 34.9408C40.822 34.6473 41.1213 34.4625 41.4478 34.4625C41.7744 34.4625 42.0737 34.6487 42.2183 34.9408L43.8809 38.3104L47.5985 38.8503C47.7571 38.8733 47.906 38.9402 48.0285 39.0434C48.151 39.1467 48.2422 39.2822 48.2916 39.4346C48.3414 39.587 48.3475 39.7504 48.309 39.9061C48.2705 40.0618 48.189 40.2036 48.0739 40.3153L45.3831 42.9374L46.0189 46.6406C46.0748 46.9629 45.9416 47.2894 45.6767 47.4813C45.5469 47.5754 45.3934 47.6314 45.2335 47.6431C45.0736 47.6547 44.9137 47.6215 44.7716 47.5471L41.4464 45.7986L38.1212 47.5471C38.0009 47.613 37.8634 47.6459 37.726 47.6459ZM37.2706 40.301L39.0377 42.0237C39.1374 42.121 39.2119 42.241 39.2551 42.3735C39.2982 42.5059 39.3087 42.6468 39.2855 42.7841L38.8687 45.2158L41.0526 44.0673C41.3032 43.9355 41.6025 43.9355 41.8517 44.0673L44.0356 45.2158L43.6188 42.7841C43.5716 42.5049 43.6632 42.2213 43.8666 42.0237L45.6337 40.301L43.1921 39.9458C43.0542 39.9258 42.9233 39.8725 42.8106 39.7907C42.6978 39.7089 42.6066 39.6009 42.5448 39.4761L41.4521 37.2636L40.3595 39.4761C40.2349 39.7296 39.9929 39.9057 39.7122 39.9458L37.2706 40.301Z" fill="#B83375"/>
</svg>
