<svg width="48" height="48" viewBox="0 0 48 48" fill="none" xmlns="http://www.w3.org/2000/svg">
<path d="M36.2938 14.8994V14.8922C36.2953 14.8662 36.2953 14.8416 36.2938 14.8156V14.8084C36.2924 14.7824 36.2895 14.7578 36.2866 14.7318C36.2866 14.7289 36.2852 14.7275 36.2852 14.7246C36.2808 14.6986 36.2765 14.6726 36.2693 14.648C36.2693 14.6466 36.2678 14.6451 36.2678 14.6423C36.2606 14.6162 36.2534 14.5902 36.2433 14.5642C36.2433 14.5642 36.2433 14.5628 36.2418 14.5628C36.2158 14.4906 36.1812 14.4212 36.1364 14.3576C36.1306 14.349 36.1234 14.3417 36.1176 14.3331L36.1147 14.3302C36.0974 14.3085 36.08 14.2883 36.0627 14.2681L36.0569 14.2623C36.0396 14.2435 36.0208 14.2262 36.002 14.2088C35.9991 14.2059 35.9962 14.2045 35.9933 14.2016C35.9746 14.1857 35.9558 14.1713 35.937 14.1568C35.9341 14.1539 35.9298 14.1525 35.9269 14.1496C35.9067 14.1351 35.8879 14.1221 35.8662 14.1106C35.8633 14.1091 35.859 14.1063 35.8561 14.1048C35.8344 14.0932 35.8127 14.0817 35.7911 14.0716L35.7824 14.0672C35.7593 14.0571 35.7362 14.0485 35.7131 14.0398C35.7102 14.0383 35.7073 14.0383 35.7044 14.0369C35.6813 14.0297 35.6567 14.0225 35.6336 14.0167C35.6307 14.0152 35.6278 14.0152 35.6235 14.0152C35.6076 14.0109 35.5917 14.0066 35.5758 14.0051L32.5982 13.4922C32.1272 13.4113 31.6779 13.7277 31.597 14.1987C31.5579 14.4252 31.6104 14.6579 31.7429 14.8456C31.8754 15.0334 32.077 15.1608 32.3035 15.1999L33.0128 15.3227L11.6914 28.3846C11.5943 28.444 11.5098 28.522 11.4429 28.6141C11.376 28.7062 11.3278 28.8106 11.3013 28.9213C11.2747 29.032 11.2702 29.1468 11.2881 29.2592C11.3059 29.3717 11.3458 29.4795 11.4053 29.5765C11.4827 29.7033 11.5913 29.8081 11.7209 29.8807C11.8505 29.9533 11.9965 29.9913 12.145 29.9912C12.2996 29.9912 12.4557 29.9493 12.5972 29.864L34.2495 16.5984L34.0617 17.6892C34.0227 17.9157 34.0752 18.1483 34.2076 18.3361C34.3401 18.5239 34.5418 18.6513 34.7682 18.6904C34.8173 18.6991 34.8679 18.7034 34.917 18.7034C35.3316 18.7034 35.6972 18.4058 35.7709 17.9839L36.2837 15.0063C36.2852 14.9991 36.2852 14.9904 36.2866 14.9832C36.2866 14.9803 36.2881 14.976 36.2881 14.9731C36.291 14.9485 36.2938 14.924 36.2938 14.8994ZM16.2987 42.0721H12.145C11.6668 42.0721 11.2782 41.6834 11.2782 41.2052V35.5433C11.2782 35.0651 11.6668 34.6764 12.145 34.6764H16.2987C16.7769 34.6764 17.1655 35.0651 17.1655 35.5433V41.2052C17.1655 41.6834 16.7769 42.0721 16.2987 42.0721ZM13.0119 40.3384H15.4318V36.4101H13.0119V40.3384ZM25.8831 42.0721H21.7294C21.2512 42.0721 20.8626 41.6834 20.8626 41.2052V29.8799C20.8626 29.4017 21.2512 29.0131 21.7294 29.0131H25.8831C26.3613 29.0131 26.7499 29.4017 26.7499 29.8799V41.2052C26.7499 41.6834 26.3613 42.0721 25.8831 42.0721ZM22.5963 40.3384H25.0162V30.7468H22.5963V40.3384ZM35.4675 42.0721H31.3138C30.8356 42.0721 30.447 41.6834 30.447 41.2052V23.9825C30.447 23.5043 30.8356 23.1156 31.3138 23.1156H35.4675C35.9457 23.1156 36.3343 23.5043 36.3343 23.9825V41.2052C36.3343 41.6834 35.9471 42.0721 35.4675 42.0721ZM32.1821 40.3384H34.6021V24.8493H32.1821V40.3384Z" fill="#B83375"/>
<path d="M43.8955 0H4.1045C1.84204 0 0 1.8406 0 4.1045V43.8955C0 46.158 1.8406 48 4.1045 48H43.8955C46.158 48 48 46.1594 48 43.8955V4.1045C48 1.8406 46.1594 0 43.8955 0ZM4.1045 1.73369H43.8955C45.203 1.73369 46.2663 2.79701 46.2663 4.1045V7.42307H1.73369V4.1045C1.73369 2.79701 2.79701 1.73369 4.1045 1.73369ZM43.8955 46.2663H4.1045C2.79701 46.2663 1.73369 45.203 1.73369 43.8955V9.15531H46.2663V43.8955C46.2663 45.203 45.203 46.2663 43.8955 46.2663Z" fill="#333333"/>
<path d="M13.597 5.6618H13.5768C12.9787 5.6618 12.4933 5.17637 12.4933 4.57824C12.4933 3.98012 12.9787 3.49469 13.5768 3.49469H13.597C14.1952 3.49469 14.6806 3.98012 14.6806 4.57824C14.6806 5.17637 14.1952 5.6618 13.597 5.6618ZM5.46316 5.6618H5.44293C4.84481 5.6618 4.35938 5.17637 4.35938 4.57824C4.35938 3.98012 4.84481 3.49469 5.44293 3.49469H5.46316C6.06128 3.49469 6.54671 3.98012 6.54671 4.57824C6.54671 5.17637 6.06272 5.6618 5.46316 5.6618ZM9.53009 5.6618H9.50987C8.91175 5.6618 8.42631 5.17637 8.42631 4.57824C8.42631 3.98012 8.91175 3.49469 9.50987 3.49469H9.53009C10.1282 3.49469 10.6136 3.98012 10.6136 4.57824C10.6136 5.17637 10.1282 5.6618 9.53009 5.6618Z" fill="#B83375"/>
</svg>
