<svg width="49" height="48" viewBox="0 0 49 48" fill="none" xmlns="http://www.w3.org/2000/svg">
<path d="M24.334 48C11.1006 48 0.333984 37.2334 0.333984 24C0.333984 10.7666 11.1006 0 24.334 0C37.5674 0 48.334 10.7666 48.334 24C48.334 37.2334 37.5674 48 24.334 48ZM24.334 1.59151C11.9772 1.59151 1.9255 11.6432 1.9255 24C1.9255 36.3568 11.9772 46.4085 24.334 46.4085C36.6907 46.4085 46.7425 36.3568 46.7425 24C46.7425 11.6432 36.6907 1.59151 24.334 1.59151Z" fill="#333333"/>
<path d="M12.5614 35.0716C12.4327 35.0716 12.3028 35.0397 12.1847 34.9774C12.0579 34.9094 11.9519 34.8082 11.8781 34.6846C11.8043 34.561 11.7654 34.4197 11.7656 34.2758V13.8408C11.7656 13.5477 11.9261 13.2784 12.1847 13.1392C12.3113 13.0708 12.4542 13.0382 12.5979 13.045C12.7416 13.0518 12.8808 13.0976 13.0004 13.1776L28.4115 23.3952C28.521 23.4677 28.6107 23.5662 28.6728 23.6819C28.7348 23.7977 28.7672 23.927 28.767 24.0583C28.7669 24.1895 28.7344 24.3187 28.6724 24.4344C28.6104 24.5501 28.5208 24.6487 28.4115 24.7214L13.0004 34.9389C12.8677 35.0265 12.7152 35.0716 12.5614 35.0716ZM13.3571 15.3235V32.793L26.5322 24.0583L13.3571 15.3235ZM36.2802 35.5967H31.6595C31.2205 35.5967 30.8638 35.24 30.8638 34.801V14.2227C30.8638 13.7837 31.2205 13.427 31.6595 13.427H36.2802C36.7192 13.427 37.076 13.7837 37.076 14.2227V34.801C37.076 35.24 36.7192 35.5967 36.2802 35.5967ZM32.4553 34.0052H35.4845V15.0185H32.4553V34.0052Z" fill="#B83375"/>
</svg>
